<svg xmlns="http://www.w3.org/2000/svg" width="971" height="247"><path d="M181 1c-8.442 10.491-16.788 21.063-25.346 31.459a18015.369 18015.369 0 01-64.679 78.145c-2.093 2.513-2.137 4.127-.129 6.735 30.98 40.258 61.852 80.598 92.739 120.927.975 1.273 1.84 2.63 3.399 4.872h-6.689c-14.662 0-29.325-.097-43.985.071-3.361.039-5.395-1.093-7.396-3.777-25.973-34.853-52.07-69.614-78.141-104.395-1.175-1.568-2.403-3.097-4.525-5.823V243H.999L1 1h45v103.858c2.158-2.409 3.288-3.569 4.305-4.819 15.951-19.608 31.947-39.181 47.808-58.861C108.842 27.866 119.378 14.398 130 1h51zm527 247c-4.349-.879-8.723-1.649-13.042-2.655-35.901-8.357-56.56-31.557-63.611-66.99-5.133-25.794-3.271-51.098 9.85-74.642 26.729-47.968 83.045-50.583 115.071-31.286 16.52 9.954 23.771 25.876 28.517 43.464 3.734 13.841 3.38 28.025 3.381 42.185 0 4.148-2.623 3.855-5.379 3.854-22.994-.018-45.988-.01-68.982-.01h-38.104c-.144 9.719 1.97 18.64 5.75 27.152 6.793 15.296 18.706 23.284 35.418 24.208 15.924.88 30.668-2.998 44.474-10.802 2.283-1.29 4.603-2.515 7.338-4.005l15.064 30.07c-9.044 6.363-18.625 11.261-29.058 14.194-7.774 2.186-15.782 3.539-23.686 5.263H708zm-30.746-117.171c21.801 0 43.242.034 64.684-.111.958-.007 2.617-1.552 2.75-2.541 1.74-13.021-8.99-28.076-22.104-31.292-22.938-5.625-42.757 8.863-45.33 33.944zM238 248c-5.037-1.536-10.25-2.651-15.079-4.684-18.957-7.975-29.676-26.156-29.066-48.073.574-20.633 10.159-35.83 27.614-46.171 19.172-11.358 40.401-14.754 62.292-15.201 2.95-.06 5.902-.008 10.096-.008-.827-7.624-1.036-14.584-2.457-21.288-1.583-7.476-6.988-11.994-14.345-13.746-17.831-4.244-33.92.128-48.66 10.414-8.974 6.263-8.928 6.334-15.585-2.206-3.686-4.728-7.36-9.463-11.04-14.195-4.15-5.338-4.078-5.92 1.447-10.24 12.131-9.487 25.715-15.9 40.824-18.9 17.713-3.517 35.407-3.508 52.876 1.419 21.789 6.146 33.518 21.154 36.867 43.088.8 5.238 1.054 10.601 1.089 15.908.174 26.313-.234 52.64.439 78.939.339 13.228 2.542 26.408 3.947 40.049-12.54 0-25.83.066-39.116-.133-1.013-.016-2.573-1.767-2.888-2.971-1.003-3.838-1.539-7.798-2.316-12.046-.888.341-1.595.403-1.973.788-10.023 10.225-22.156 16.241-36.282 18.355-.593.089-1.125.592-1.686.901L238 248zm55.161-83.587c-9.005.768-17.541.676-25.676 2.434-7.291 1.575-14.778 4.182-21.031 8.146-8.631 5.472-11.537 18.448-7.837 27.702 3.099 7.752 10.592 11.354 22.093 10.511 12.637-.927 22.348-7.777 31.451-15.771.543-.477.954-1.419.958-2.147.063-9.925.042-19.85.042-30.875zM972 243h-41.919v-6.349c0-36.325.009-72.65-.019-108.976-.002-2.658-.168-5.325-.421-7.973-1.784-18.64-14.512-22.638-28.945-20.403-13.635 2.11-23.971 10.355-32.631 20.645-1.276 1.516-1.407 4.324-1.412 6.536-.081 36.824-.177 73.65.076 110.474.036 5.246-1.523 6.43-6.451 6.293-12.132-.336-24.28-.109-36.808-.109V66.534h41.425V85.17c2.269-1.916 3.596-3.013 4.896-4.14 16.475-14.268 35.088-21.761 57.322-19.099 23.875 2.858 40.165 18.388 43.692 42.345.235 1.599.789 3.151 1.194 4.725L972 243zm-539 5c-2.556-.619-5.107-1.258-7.669-1.855-21.191-4.95-33.968-19.323-35.113-41-.877-16.609-.675-33.28-.788-49.925-.114-16.823-.025-33.648-.025-50.473v-5.896h-28.032V66.177h27.852V16.445h42.178v49.351h41.729v33.093h-41.534v5.821c0 28.484-.015 56.97.005 85.454.013 17.714 7.322 23.476 24.691 19.087 5.266-1.331 10.281-3.651 16.039-5.746l13.231 32.223c-9.833 5.604-20.042 9.206-30.891 11.139-1.251.224-2.449.749-3.672 1.134L433 248zm133 0c-2.556-.619-5.107-1.258-7.669-1.855-21.191-4.95-33.968-19.323-35.113-41-.877-16.609-.675-33.28-.788-49.925-.114-16.823-.025-33.648-.025-50.473v-5.896h-28.032V66.177h27.852V16.445h42.178v49.351h41.729v33.093h-41.534v5.821c0 28.484-.015 56.97.005 85.454.013 17.714 7.322 23.476 24.691 19.087 5.266-1.331 10.281-3.651 16.039-5.746l13.231 32.223c-9.833 5.604-20.042 9.206-30.891 11.139-1.251.224-2.449.749-3.672 1.134L566 248z" fill-rule="evenodd" clip-rule="evenodd" fill="#FFF"/></svg>