<?xml version="1.0" encoding="utf-8"?>
<!-- Generator: Adobe Illustrator 16.0.3, SVG Export Plug-In . SVG Version: 6.00 Build 0)  -->
<!DOCTYPE svg PUBLIC "-//W3C//DTD SVG 1.1//EN" "http://www.w3.org/Graphics/SVG/1.1/DTD/svg11.dtd">
<svg version="1.1" id="Layer_1" xmlns="http://www.w3.org/2000/svg" xmlns:xlink="http://www.w3.org/1999/xlink" x="0px" y="0px"
	 width="971px" height="247px" viewBox="0 0 971 247" enable-background="new 0 0 971 247" xml:space="preserve">
<g>
	<path fill-rule="evenodd" clip-rule="evenodd" fill="#FFFFFF" d="M181,1c-8.442,10.491-16.788,21.063-25.346,31.459
		c-21.49,26.105-43.042,52.161-64.679,78.145c-2.093,2.513-2.137,4.127-0.129,6.735c30.98,40.258,61.852,80.598,92.739,120.927
		c0.975,1.273,1.84,2.63,3.399,4.872c-2.873,0-4.781,0-6.689,0c-14.662,0-29.325-0.097-43.985,0.071
		c-3.361,0.039-5.395-1.093-7.396-3.777c-25.973-34.853-52.07-69.614-78.141-104.395c-1.175-1.568-2.403-3.097-4.525-5.823
		c0,38.589,0,75.751,0,113.786c-15.467,0-30.358,0-45.249,0C1,162.333,1,81.667,1,1c15,0,30,0,45,0c0,34.132,0,68.264,0,103.858
		c2.158-2.409,3.288-3.569,4.305-4.819c15.951-19.608,31.947-39.181,47.808-58.861C108.842,27.866,119.378,14.398,130,1
		C147,1,164,1,181,1z"/>
	<path fill-rule="evenodd" clip-rule="evenodd" fill="#FFFFFF" d="M708,248c-4.349-0.879-8.723-1.649-13.042-2.655
		c-35.901-8.357-56.56-31.557-63.611-66.99c-5.133-25.794-3.271-51.098,9.85-74.642c26.729-47.968,83.045-50.583,115.071-31.286
		c16.52,9.954,23.771,25.876,28.517,43.464c3.734,13.841,3.38,28.025,3.381,42.185c0,4.148-2.623,3.855-5.379,3.854
		c-22.994-0.018-45.988-0.01-68.982-0.01c-12.482,0-24.964,0-38.104,0c-0.144,9.719,1.97,18.64,5.75,27.152
		c6.793,15.296,18.706,23.284,35.418,24.208c15.924,0.88,30.668-2.998,44.474-10.802c2.283-1.29,4.603-2.515,7.338-4.005
		c5.084,10.147,9.982,19.926,15.064,30.07c-9.044,6.363-18.625,11.261-29.058,14.194c-7.774,2.186-15.782,3.539-23.686,5.263
		C723.333,248,715.667,248,708,248z M677.254,130.829c21.801,0,43.242,0.034,64.684-0.111c0.958-0.007,2.617-1.552,2.75-2.541
		c1.74-13.021-8.99-28.076-22.104-31.292C699.646,91.26,679.827,105.748,677.254,130.829z"/>
	<path fill-rule="evenodd" clip-rule="evenodd" fill="#FFFFFF" d="M238,248c-5.037-1.536-10.25-2.651-15.079-4.684
		c-18.957-7.975-29.676-26.156-29.066-48.073c0.574-20.633,10.159-35.83,27.614-46.171c19.172-11.358,40.401-14.754,62.292-15.201
		c2.95-0.06,5.902-0.008,10.096-0.008c-0.827-7.624-1.036-14.584-2.457-21.288c-1.583-7.476-6.988-11.994-14.345-13.746
		c-17.831-4.244-33.92,0.128-48.66,10.414c-8.974,6.263-8.928,6.334-15.585-2.206c-3.686-4.728-7.36-9.463-11.04-14.195
		c-4.15-5.338-4.078-5.92,1.447-10.24c12.131-9.487,25.715-15.9,40.824-18.9c17.713-3.517,35.407-3.508,52.876,1.419
		c21.789,6.146,33.518,21.154,36.867,43.088c0.8,5.238,1.054,10.601,1.089,15.908c0.174,26.313-0.234,52.64,0.439,78.939
		c0.339,13.228,2.542,26.408,3.947,40.049c-12.54,0-25.83,0.066-39.116-0.133c-1.013-0.016-2.573-1.767-2.888-2.971
		c-1.003-3.838-1.539-7.798-2.316-12.046c-0.888,0.341-1.595,0.403-1.973,0.788c-10.023,10.225-22.156,16.241-36.282,18.355
		c-0.593,0.089-1.125,0.592-1.686,0.901C249.333,248,243.667,248,238,248z M293.161,164.413c-9.005,0.768-17.541,0.676-25.676,2.434
		c-7.291,1.575-14.778,4.182-21.031,8.146c-8.631,5.472-11.537,18.448-7.837,27.702c3.099,7.752,10.592,11.354,22.093,10.511
		c12.637-0.927,22.348-7.777,31.451-15.771c0.543-0.477,0.954-1.419,0.958-2.147C293.182,185.363,293.161,175.438,293.161,164.413z"
		/>
	<path fill-rule="evenodd" clip-rule="evenodd" fill="#FFFFFF" d="M972,243c-13.776,0-27.553,0-41.919,0c0-2.449,0-4.398,0-6.349
		c0-36.325,0.009-72.65-0.019-108.976c-0.002-2.658-0.168-5.325-0.421-7.973c-1.784-18.64-14.512-22.638-28.945-20.403
		c-13.635,2.11-23.971,10.355-32.631,20.645c-1.276,1.516-1.407,4.324-1.412,6.536c-0.081,36.824-0.177,73.65,0.076,110.474
		c0.036,5.246-1.523,6.43-6.451,6.293c-12.132-0.336-24.28-0.109-36.808-0.109c0-59.009,0-117.581,0-176.604
		c13.528,0,27.207,0,41.425,0c0,5.849,0,11.59,0,18.636c2.269-1.916,3.596-3.013,4.896-4.14
		c16.475-14.268,35.088-21.761,57.322-19.099c23.875,2.858,40.165,18.388,43.692,42.345c0.235,1.599,0.789,3.151,1.194,4.725
		C972,153.667,972,198.333,972,243z"/>
	<path fill-rule="evenodd" clip-rule="evenodd" fill="#FFFFFF" d="M433,248c-2.556-0.619-5.107-1.258-7.669-1.855
		c-21.191-4.95-33.968-19.323-35.113-41c-0.877-16.609-0.675-33.28-0.788-49.925c-0.114-16.823-0.025-33.648-0.025-50.473
		c0-1.784,0-3.569,0-5.896c-9.608,0-18.683,0-28.032,0c0-11.101,0-21.655,0-32.674c9.206,0,18.137,0,27.852,0
		c0-16.789,0-33.143,0-49.732c14.391,0,27.992,0,42.178,0c0,16.262,0,32.514,0,49.351c14.132,0,27.7,0,41.729,0
		c0,11.258,0,21.93,0,33.093c-13.795,0-27.38,0-41.534,0c0,2.26,0,4.04,0,5.821c0,28.484-0.015,56.97,0.005,85.454
		c0.013,17.714,7.322,23.476,24.691,19.087c5.266-1.331,10.281-3.651,16.039-5.746c4.27,10.399,8.656,21.082,13.231,32.223
		c-9.833,5.604-20.042,9.206-30.891,11.139c-1.251,0.224-2.449,0.749-3.672,1.134C445,248,439,248,433,248z"/>
	<path fill-rule="evenodd" clip-rule="evenodd" fill="#FFFFFF" d="M566,248c-2.556-0.619-5.107-1.258-7.669-1.855
		c-21.191-4.95-33.968-19.323-35.113-41c-0.877-16.609-0.675-33.28-0.788-49.925c-0.114-16.823-0.025-33.648-0.025-50.473
		c0-1.784,0-3.569,0-5.896c-9.608,0-18.683,0-28.032,0c0-11.101,0-21.655,0-32.674c9.206,0,18.137,0,27.852,0
		c0-16.789,0-33.143,0-49.732c14.391,0,27.992,0,42.178,0c0,16.262,0,32.514,0,49.351c14.132,0,27.7,0,41.729,0
		c0,11.258,0,21.93,0,33.093c-13.795,0-27.38,0-41.534,0c0,2.26,0,4.04,0,5.821c0,28.484-0.015,56.97,0.005,85.454
		c0.013,17.714,7.322,23.476,24.691,19.087c5.266-1.331,10.281-3.651,16.039-5.746c4.27,10.399,8.656,21.082,13.231,32.223
		c-9.833,5.604-20.042,9.206-30.891,11.139c-1.251,0.224-2.449,0.749-3.672,1.134C578,248,572,248,566,248z"/>
	<path display="none" fill-rule="evenodd" clip-rule="evenodd" fill="#FFFFFF" d="M130,1
		c-10.622,13.398-21.158,26.866-31.887,40.178c-15.861,19.681-31.857,39.253-47.808,58.861c-1.018,1.25-2.147,2.41-4.305,4.819
		C46,69.264,46,35.132,46,1C74,1,102,1,130,1z"/>
	<path display="none" fill-rule="evenodd" clip-rule="evenodd" fill="#FFFFFF" d="M677.254,130.829
		c2.573-25.081,22.393-39.569,45.33-33.944c13.113,3.216,23.844,20.804,22.104,33.824c0,0-1.792,0.002-2.75,0.009
		C720.496,130.863,699.055,130.829,677.254,130.829z"/>
	<path display="none" fill-rule="evenodd" clip-rule="evenodd" fill="#FFFFFF" d="M293.161,164.413
		c0,11.025,0.021,20.95-0.042,30.874c-0.004,0.729-0.415,1.671-0.958,2.147c-9.103,7.993-18.813,14.844-31.451,15.771
		c-11.501,0.844-18.994-2.759-22.093-10.511c-3.7-9.254-0.794-22.23,7.837-27.702c6.252-3.964,13.74-6.57,21.031-8.146
		C275.621,165.089,284.156,165.181,293.161,164.413z"/>
</g>
</svg>
